<?xml version="1.0" encoding="UTF-8" standalone="no"?>
<!DOCTYPE svg PUBLIC "-//W3C//DTD SVG 1.1//EN"
"http://www.w3.org/Graphics/SVG/1.1/DTD/svg11.dtd">
<svg viewBox="0 0 935 1210" version="1.1" xmlns="http://www.w3.org/2000/svg" xmlns:xlink="http://www.w3.org/1999/xlink">
<defs>
<style type="text/css"><![CDATA[
.g0_2{
fill: #FFF;
}
]]></style>
</defs>
<path d="M37.4 139.3H900.5v18H37.4Z" class="g0_2"/>
<path d="M37.4 157.3H900.5v26H37.4Z" class="g0_2"/>
<path d="M37.4 183.3H900.5v21.3H37.4Z" class="g0_2"/>
<path d="M37.4 272.8H900.5v18H37.4Z" class="g0_2"/>
<path d="M37.4 290.8H900.5v26H37.4Z" class="g0_2"/>
<path d="M37.4 316.8H900.5v26H37.4Z" class="g0_2"/>
<path d="M37.4 342.8H900.5v25.7H37.4Z" class="g0_2"/>
<path d="M37.4 368.5H900.5v26H37.4Z" class="g0_2"/>
<path d="M37.4 394.5H900.5v26.1H37.4Z" class="g0_2"/>
<path d="M37.4 420.6H900.5v26H37.4Z" class="g0_2"/>
<path d="M37.4 446.6H900.5v26H37.4Z" class="g0_2"/>
<path d="M37.4 472.6H900.5v26.1H37.4Z" class="g0_2"/>
<path d="M37.4 498.7H900.5v25.6H37.4Z" class="g0_2"/>
<path d="M37.4 524.3H900.5v21.3H37.4Z" class="g0_2"/>
<path d="M37.4 613.8H900.5v22.7H37.4Z" class="g0_2"/>
<path d="M37.4 636.5H900.5v21.3H37.4Z" class="g0_2"/>
<path d="M37.4 657.8H900.5v21.3H37.4Z" class="g0_2"/>
<path d="M37.4 746.9H900.5v18H37.4Z" class="g0_2"/>
<path d="M37.4 833.1H900.5V851H37.4Z" class="g0_2"/>
<path d="M37.4 851H900.5v26.1H37.4Z" class="g0_2"/>
<path d="M37.4 877.1H900.5v21.2H37.4Z" class="g0_2"/>
<path d="M37.4 898.3H900.5v26.1H37.4Z" class="g0_2"/>
<path d="M37.4 924.4H900.5v26H37.4Z" class="g0_2"/>
<path d="M37.4 950.4H900.5v21.3H37.4Z" class="g0_2"/>
<path d="M37.4 1039.5H900.5v18.3H37.4Z" class="g0_2"/>
<path d="M37.4 1057.8H900.5v25.7H37.4Z" class="g0_2"/>
<path d="M37.4 1083.5H900.5v26H37.4Z" class="g0_2"/>
<path d="M37.4 1109.5H900.5v26.1H37.4Z" class="g0_2"/>
</svg>